HIERARCHY
ROOT Hips
{
  OFFSET 49.3424 86.4471 8.1831
  CHANNELS 6 Xposition Yposition Zposition Zrotation Xrotation Yrotation
  JOINT spine
  {
    OFFSET 0 6.84637 0.3937
    CHANNELS 3 Zrotation Xrotation Yrotation
    JOINT spine1
    {
      OFFSET 0 9.49621 0
      CHANNELS 3 Zrotation Xrotation Yrotation
      JOINT spine2
      {
        OFFSET 0 9.09909 0
        CHANNELS 3 Zrotation Xrotation Yrotation
        JOINT Neck
        {
          OFFSET 0 23.3612 1.11378
          CHANNELS 3 Zrotation Xrotation Yrotation
          JOINT Head
          {
            OFFSET 0 7.05802 0
            CHANNELS 3 Zrotation Xrotation Yrotation
            End Site
            {
              OFFSET 0 17.0844 -5.63419
            }
          }
        }
        JOINT RightShoulder
        {
          OFFSET -3.83136 9.82631 -0.533491
          CHANNELS 3 Zrotation Xrotation Yrotation
          JOINT RightArm
          {
            OFFSET 0 12.8881 0
            CHANNELS 3 Zrotation Xrotation Yrotation
            JOINT RightArmRoll
            {
              OFFSET 0 6.50617 0
              CHANNELS 3 Zrotation Xrotation Yrotation
              JOINT RightForeArm
              {
                OFFSET 0 18.9501 0
                CHANNELS 3 Zrotation Xrotation Yrotation
                JOINT RightForeArmRoll
                {
                  OFFSET 0 7.30092 0
                  CHANNELS 3 Zrotation Xrotation Yrotation
                  JOINT RightHand
                  {
                    OFFSET 0 14.6514 0
                    CHANNELS 3 Zrotation Xrotation Yrotation
                    End Site
                    {
                      OFFSET 0 0 0
                    }
                  }
                }
              }
            }
          }
        }
        JOINT LeftShoulder
        {
          OFFSET 3.83136 9.82631 -0.533491
          CHANNELS 3 Zrotation Xrotation Yrotation
          JOINT LeftArm
          {
            OFFSET 0 12.8881 0
            CHANNELS 3 Zrotation Xrotation Yrotation
            JOINT LeftArmRoll
            {
              OFFSET 0 6.50617 0
              CHANNELS 3 Zrotation Xrotation Yrotation
              JOINT LeftForeArm
              {
                OFFSET 0 18.9501 0
                CHANNELS 3 Zrotation Xrotation Yrotation
                JOINT LeftForeArmRoll
                {
                  OFFSET 0 7.30093 0
                  CHANNELS 3 Zrotation Xrotation Yrotation
                  JOINT LeftHand
                  {
                    OFFSET 0 14.6514 0
                    CHANNELS 3 Zrotation Xrotation Yrotation
                    End Site
                    {
                      OFFSET 0 0 0
                    }
                  }
                }
              }
            }
          }
        }
      }
    }
  }
  JOINT RightUpLeg
  {
    OFFSET -6.06837 -1.11278 -0.933477
    CHANNELS 3 Zrotation Xrotation Yrotation
    JOINT RightUpLegRoll
    {
      OFFSET 0 17.1796 0
      CHANNELS 3 Zrotation Xrotation Yrotation
      JOINT RightLeg
      {
        OFFSET 0 -21.2743 0
        CHANNELS 3 Zrotation Xrotation Yrotation
        JOINT RightLegRoll
        {
          OFFSET 0 21.3439 0
          CHANNELS 3 Zrotation Xrotation Yrotation
          JOINT RightFoot
          {
            OFFSET 0 17.7652 0
            CHANNELS 3 Zrotation Xrotation Yrotation
            JOINT RightToeBase
            {
              OFFSET 0 14.8508 0
              CHANNELS 3 Zrotation Xrotation Yrotation
              End Site
              {
                OFFSET 0.0062947 7.19213 -0.829005
              }
            }
          }
        }
      }
    }
  }
  JOINT LeftUpLeg
  {
    OFFSET 6.06837 -1.11278 -0.933477
    CHANNELS 3 Zrotation Xrotation Yrotation
    JOINT LeftUpLegRoll
    {
      OFFSET 0 17.1797 0
      CHANNELS 3 Zrotation Xrotation Yrotation
      JOINT LeftLeg
      {
        OFFSET 0 21.2742 0
        CHANNELS 3 Zrotation Xrotation Yrotation
        JOINT LeftLegRoll
        {
          OFFSET 0 21.5412 0
          CHANNELS 3 Zrotation Xrotation Yrotation
          JOINT LeftFoot
          {
            OFFSET 0 17.5679 0
            CHANNELS 3 Zrotation Xrotation Yrotation
            JOINT LeftToeBase
            {
              OFFSET 0 14.8508 0
              CHANNELS 3 Zrotation Xrotation Yrotation
              End Site
              {
                OFFSET -0.0282102 7.19214 -0.829005
              }
            }
          }
        }
      }
    }
  }
}
MOTION
Frames: 9
Frame Time: 0.00208333
50.1392 86.4685 6.50679 0.390707 -2.22777 -0.528654 1.48396 -1.7879 1.24235 3.00434 0.440868 2.33801 2.97744 2.08407 2.28851 -17.3784 7.08398 1.6686 10.0842 9.0277 -2.62459 51.2421 -6.93981 -3.95984 107.736 24.7012 14.0858 -3.85207e-005 4.99561e-006 -9.80536e-007 16.2732 0.122278 -0.140789 -8.79086e-006 -7.92546e-006 -3.01588 8.02902 -4.95146 0.697684 -77.9311 -8.31341 5.56502 -94.6142 29.6344 -25.1285 -8.11089e-007 1.60124e-006 -5.11654e-007 -14.7965 0.111417 -0.678088 6.68568e-006 -1.14009e-007 3.00896 -8.02893 -4.95143 -0.697696 179.755 14.6232 -2.35212 180 7.0149e-015 178.698 176.313 25.0312 -179.706 4.1201e-007 -1.61971e-006 0.737906 -24.2695 71.401 23.1241 8.13649 25.2327 -3.48774 -176.825 12.5619 -0.548501 4.54188e-006 -4.6773e-006 -0.866975 -1.46706 -25.313 0.61274 -8.51954e-006 -2.07363e-006 -0.464734 21.1992 73.59 -25.2001 -8.13649 25.2327 3.48774 
50.1433 86.4719 6.51006 0.391822 -2.22252 -0.5222 1.48392 -1.78995 1.24105 3.00442 0.437838 2.33543 2.97754 2.08105 2.28592 -17.3637 7.08064 1.67395 10.0711 9.02376 -2.61468 51.2453 -6.93871 -3.95918 107.738 24.7082 14.0694 -3.85207e-005 4.99561e-006 -9.80536e-007 16.2773 0.122276 -0.135788 -8.79086e-006 -7.92546e-006 -3.01588 8.02902 -4.95146 0.697684 -77.9274 -8.31304 5.5648 -94.6213 29.6297 -25.1068 -8.11089e-007 1.60124e-006 -5.11654e-007 -14.8112 0.11104 -0.681367 6.68568e-006 -1.14009e-007 3.00896 -8.02893 -4.95143 -0.697696 179.753 14.6284 -2.35153 180 7.0149e-015 178.698 176.314 25.0316 -179.706 4.1201e-007 -1.61971e-006 0.737906 -24.269 71.4017 23.1248 8.13649 25.2327 -3.48774 -176.828 12.5678 -0.542843 4.54188e-006 -4.6773e-006 -0.866978 -1.46421 -25.3112 0.613997 -8.51954e-006 -2.07363e-006 -0.464734 21.195 73.588 -25.1965 -8.13649 25.2327 3.48774 
50.1551 86.4722 6.49764 0.392941 -2.21707 -0.515709 1.48388 -1.79207 1.2397 3.00453 0.434716 2.33275 2.97765 2.07792 2.28323 -17.3488 7.07719 1.67937 10.0578 9.01983 -2.60464 51.2485 -6.93748 -3.95844 107.74 24.7151 14.0529 -3.85207e-005 4.99561e-006 -9.80536e-007 16.2814 0.122273 -0.130815 -8.79086e-006 -7.92546e-006 -3.01589 8.02902 -4.95146 0.697684 -77.9237 -8.31268 5.56457 -94.6285 29.6247 -25.0846 -8.11089e-007 1.60124e-006 -5.11654e-007 -14.8264 0.110477 -0.684773 6.68568e-006 -1.14009e-007 3.00896 -8.02893 -4.95143 -0.697696 179.751 14.6339 -2.35091 180 7.0149e-015 178.698 176.314 25.032 -179.706 4.1201e-007 -1.61971e-006 0.737906 -24.2684 71.4023 23.1255 8.13649 25.2327 -3.48774 -176.832 12.574 -0.537009 4.54188e-006 -4.6773e-006 -0.866978 -1.46127 -25.3094 0.615298 -8.51954e-006 -2.07363e-006 -0.464734 21.1906 73.5861 -25.1928 -8.13649 25.2327 3.48774 
50.1452 86.4709 6.49645 0.394064 -2.21147 -0.509194 1.48382 -1.79423 1.23832 3.00465 0.431528 2.33001 2.97777 2.07474 2.28049 -17.3339 7.07367 1.68484 10.0444 9.01589 -2.59453 51.2517 -6.93616 -3.95763 107.742 24.7219 14.0363 -3.85207e-005 4.99561e-006 -9.80536e-007 16.2856 0.122271 -0.125862 -8.79086e-006 -7.92546e-006 -3.01589 8.02902 -4.95146 0.697684 -77.92 -8.31233 5.56435 -94.6357 29.6195 -25.062 -8.11089e-007 1.60124e-006 -5.11654e-007 -14.8419 0.109783 -0.688268 6.68568e-006 -1.14009e-007 3.00896 -8.02893 -4.95143 -0.697696 179.749 14.6394 -2.35027 180 7.0149e-015 178.698 176.314 25.0323 -179.706 4.1201e-007 -1.61971e-006 0.737906 -24.2677 71.4029 23.1262 8.13649 25.2327 -3.48774 -176.835 12.5803 -0.531051 4.54188e-006 -4.6773e-006 -0.866978 -1.45825 -25.3076 0.616629 -8.51954e-006 -2.07363e-006 -0.464734 21.1862 73.584 -25.1889 -8.13649 25.2327 3.48774 
50.1495 86.4701 6.50211 0.395188 -2.20578 -0.502665 1.48375 -1.79642 1.23693 3.00477 0.428304 2.32724 2.9779 2.07151 2.2777 -17.3189 7.07011 1.69035 10.0309 9.01195 -2.58436 51.255 -6.9348 -3.95679 107.745 24.7287 14.0197 -3.85207e-005 4.99561e-006 -9.80536e-007 16.2898 0.122268 -0.120919 -8.79086e-006 -7.92546e-006 -3.0159 8.02902 -4.95146 0.697684 -77.9162 -8.31199 5.56414 -94.643 29.6141 -25.0393 -8.11089e-007 1.60124e-006 -5.11654e-007 -14.8575 0.109013 -0.691815 6.68568e-006 -1.14009e-007 3.00896 -8.02893 -4.95143 -0.697696 179.747 14.6451 -2.34962 180 -7.0149e-015 178.698 176.314 25.0326 -179.706 4.1201e-007 -1.61971e-006 0.737906 -24.2671 71.4035 23.1268 8.13649 25.2327 -3.48774 -176.839 12.5867 -0.525021 4.54188e-006 -4.6773e-006 -0.866977 -1.4552 -25.3057 0.617979 -8.51954e-006 -2.07363e-006 -0.464734 21.1817 73.582 -25.1851 -8.13649 25.2327 3.48774 
50.1513 86.4715 6.50132 0.396311 -2.20007 -0.496131 1.48368 -1.79862 1.23553 3.0049 0.425069 2.32446 2.97803 2.06828 2.27491 -17.3039 7.06653 1.69586 10.0174 9.00801 -2.57418 51.2582 -6.93342 -3.95594 107.747 24.7355 14.0031 -3.85207e-005 4.99561e-006 -9.80536e-007 16.2941 0.122265 -0.11598 -8.79086e-006 -7.92546e-006 -3.01591 8.02902 -4.95146 0.697684 -77.9124 -8.31164 5.56392 -94.6502 29.6087 -25.0165 -8.11089e-007 1.60124e-006 -5.11654e-007 -14.8731 0.108221 -0.695377 6.68568e-006 -1.14009e-007 3.00896 -8.02893 -4.95143 -0.697696 179.745 14.6507 -2.34897 180 -7.0149e-015 178.698 176.315 25.0328 -179.706 4.1201e-007 -1.61971e-006 0.737906 -24.2664 71.4041 23.1274 8.13649 25.2327 -3.48774 -176.843 12.5931 -0.518972 4.54188e-006 -4.6773e-006 -0.866977 -1.45213 -25.3038 0.619333 -8.51954e-006 -2.07363e-006 -0.464734 21.1771 73.58 -25.1812 -8.13649 25.2327 3.48774 
50.1429 86.4693 6.49297 0.397432 -2.1944 -0.489604 1.48362 -1.80081 1.23413 3.00502 0.421851 2.32169 2.97816 2.06506 2.27214 -17.289 7.06297 1.70136 10.0039 9.00407 -2.56403 51.2615 -6.93207 -3.9551 107.749 24.7423 13.9866 -3.85207e-005 4.99561e-006 -9.80536e-007 16.2983 0.122263 -0.111036 -8.79086e-006 -7.92546e-006 -3.01592 8.02902 -4.95146 0.697684 -77.9086 -8.3113 5.5637 -94.6574 29.6033 -24.9938 -8.11089e-007 1.60124e-006 -5.11654e-007 -14.8887 0.107465 -0.698914 6.68568e-006 -1.14009e-007 3.00896 -8.02893 -4.95143 -0.697696 179.743 14.6564 -2.34832 180 7.0149e-015 178.698 176.315 25.0331 -179.706 4.1201e-007 -1.61971e-006 0.737906 -24.2657 71.4047 23.128 8.13649 25.2327 -3.48774 -176.846 12.5994 -0.512954 4.54188e-006 -4.6773e-006 -0.866976 -1.44909 -25.3019 0.620679 -8.51954e-006 -2.07363e-006 -0.464734 21.1726 73.578 -25.1774 -8.13649 25.2327 3.48774 
50.1454 86.4664 6.49005 0.398549 -2.18883 -0.483094 1.48356 -1.80296 1.23276 3.00513 0.418677 2.31897 2.97828 2.06189 2.2694 -17.274 7.05946 1.70682 9.99054 9.00013 -2.55393 51.2647 -6.93077 -3.95431 107.751 24.7491 13.97 -3.85207e-005 4.99561e-006 -9.80536e-007 16.3025 0.12226 -0.106078 -8.79086e-006 -7.92546e-006 -3.01593 8.02902 -4.95146 0.697684 -77.9049 -8.31095 5.56348 -94.6646 29.5981 -24.9714 -8.11089e-007 1.60124e-006 -5.11654e-007 -14.9041 0.106799 -0.702391 6.68568e-006 -1.14009e-007 3.00896 -8.02893 -4.95143 -0.697696 179.741 14.6619 -2.34769 180 7.0149e-015 178.698 176.315 25.0334 -179.707 4.1201e-007 -1.61971e-006 0.737906 -24.2651 71.4053 23.1287 8.13649 25.2327 -3.48774 -176.85 12.6057 -0.507022 4.54188e-006 -4.6773e-006 -0.866976 -1.44609 -25.3001 0.622003 -8.51954e-006 -2.07363e-006 -0.464734 21.1682 73.576 -25.1735 -8.13649 25.2327 3.48774 
50.1494 86.4704 6.49552 0.399659 -2.18342 -0.476613 1.48352 -1.80506 1.23143 3.00523 0.415576 2.31632 2.97839 2.05879 2.26674 -17.2592 7.05604 1.71223 9.97729 8.99619 -2.54392 51.2679 -6.92957 -3.95359 107.753 24.756 13.9535 -3.85207e-005 4.99561e-006 -9.80536e-007 16.3066 0.122257 -0.101099 -8.79086e-006 -7.92546e-006 -3.01593 8.02902 -4.95146 0.697684 -77.9012 -8.31059 5.56325 -94.6718 29.5932 -24.9493 -8.11089e-007 1.60124e-006 -5.11654e-007 -14.9192 0.106278 -0.705768 6.68568e-006 -1.14009e-007 3.00896 -8.02893 -4.95143 -0.697696 179.739 14.6673 -2.34708 180 7.0149e-015 178.698 176.315 25.0338 -179.707 4.1201e-007 -1.61971e-006 0.737906 -24.2645 71.406 23.1293 8.13649 25.2327 -3.48774 -176.854 12.6118 -0.501225 4.54188e-006 -4.6773e-006 -0.866977 -1.44316 -25.2983 0.623294 -8.51954e-006 -2.07363e-006 -0.464734 21.1638 73.574 -25.1698 -8.13649 25.2327 3.48774 
